<svg xmlns="http://www.w3.org/2000/svg" viewBox="0 0 182.34 137.13"><defs><style>.cls-1{fill:none;}.cls-2{fill:#231f21;}.cls-3{fill:#b65b38;}</style></defs><title>Asset 1</title><g id="Layer_2" data-name="Layer 2"><g id="Layer_1-2" data-name="Layer 1"><path class="cls-1" d="M148.81,18.38C120.12,7.68,91.56,8.19,91.27,8.2h-.19c-.29,0-28.85-.52-57.54,10.18a142,142,0,0,0,2.1,45.51l.27,1.21c0,.06,0,.11,0,.17l.06.27a0,0,0,0,0,0,0l.24,1v0l0,.13a3,3,0,0,0,.08.32c.11.45.23.9.35,1.35l.3,1.11,0,.1a.29.29,0,0,1,0,.09c0,.13.07.25.1.38v0s0,0,0,0l.33,1.16c0,.06,0,.12,0,.17.1.36.21.72.32,1.07l.12.4.39,1.26c.12.36.23.72.35,1.08a.14.14,0,0,1,0,.07l.06.17.06.19c.09.28.19.56.29.83l0,.1a1.21,1.21,0,0,0,0,.14c0,.13.09.26.14.39s0,.09.05.14l.33.92,0,.08a2,2,0,0,0,.1.26l.3.8s0,.09,0,.13.1.27.16.41a.14.14,0,0,1,0,.06,7.53,7.53,0,0,1,5.29,7.53,9.38,9.38,0,0,1-.46,2.94l0,.08.28.51s0,0,0,0l.21.38a.56.56,0,0,0,0,.08l.45.79s0,.09.08.14l6-11.13a5,5,0,0,1,1.46-1.77c0,.66,0,1.32,0,2a1.9,1.9,0,0,0,1,1.71L48.26,95.52l0,0,.21.32.18.28,0,0a4,4,0,0,0,.23.34l.06.08.25.39.24.35,0,0a.71.71,0,0,0,.1.14l.31.46.48.68a2.43,2.43,0,0,1,.76-.08h5.53a1.11,1.11,0,0,1,.6.09,1.51,1.51,0,0,1,.19.63l.07.54c.06.44.1.67.1.69s0,.23-.13.25a2.41,2.41,0,0,1-.59,0H55.49q-.32,0-.39.12a1.57,1.57,0,0,0-.07.63v2.19a2.34,2.34,0,0,0,.11,1c.07.1.32.15.76.15h7.69c.19.24.37.49.57.72h0a3.61,3.61,0,0,0,.68,1.17,3.4,3.4,0,0,0,.94.75c.11.13.23.25.35.38,9.67,10.58,23.21,15.59,24.94,16.2v.06l.09,0,.09,0v-.06c1.73-.61,15.21-5.6,24.88-16.13.59-.64,1.16-1.29,1.71-2h0c.32-.4.64-.8,1-1.21l-1.11.83c-.76.56-1.87,1.38-3.24,2.35-5.76,4.09-16,10.94-23.29,13.31-7.26-2.37-17.52-9.22-23.29-13.31l-.61-.43c-1.5-1.07-2.63-1.91-3.24-2.37h0a2.68,2.68,0,0,1-.05-.3h1.2a1.5,1.5,0,0,0,.72-.12c.13-.08.19-.29.19-.63v-2.7a1.06,1.06,0,0,0-.07-.5.3.3,0,0,0-.26-.11h-1.6l-.14,0-.1,0-.16-.09a.49.49,0,0,1-.1-.16,1.89,1.89,0,0,1-.06-.21l0-.3a3.48,3.48,0,0,0-.06-.35L60.66,83.3l-.07-.45c0-.2-.06-.33-.07-.39s0-.15-.08-.26a.29.29,0,0,0-.17-.2L60,81.92a1.92,1.92,0,0,0-.45,0h-1a3,3,0,0,0,0-.43c0-.9,0-1.79,0-2.68h1a4.54,4.54,0,0,1,1.2.14l.37.1a3.35,3.35,0,0,1,2.25,2.12,5.18,5.18,0,0,1,.17.53c0,.16.08.35.14.68l.07.44,2.58,15,.33.07a3.27,3.27,0,0,1,1.93,1.34,3.64,3.64,0,0,1,.59,1.65H67.63c-.24,0-.4.05-.47.15a1.68,1.68,0,0,0-.11.78v1.74c0,.1,0,.23,0,.41s0,.29,0,.35a.71.71,0,0,0,.13.48.69.69,0,0,0,.52.15h11c3,0,5.25-.52,6.79-1.55h0l.27-.19A6.22,6.22,0,0,0,88,97.82a4.89,4.89,0,0,0-.82-3.06,3.72,3.72,0,0,1,1.5-1.66,10.27,10.27,0,0,1-.48-2.31A5.56,5.56,0,0,0,89,87.74a6.08,6.08,0,0,0-.26-1.87h0a10.91,10.91,0,0,1,1.75-3.32A8.11,8.11,0,0,1,92,86.11a8.64,8.64,0,0,0-.68,3.5,8.28,8.28,0,0,0,.16,1.71,7.12,7.12,0,0,1-.74,1.36,6,6,0,0,1-.63.78,7.14,7.14,0,0,1,.86,2.25h-.35a.6.6,0,0,0-.63.57l-1.44,7.51a4.6,4.6,0,0,1-.11.45,1.59,1.59,0,0,0-.08.42.29.29,0,0,0,.1.23A.81.81,0,0,0,89,105h1.3a2.81,2.81,0,0,0,.86-.1,1.61,1.61,0,0,0,.58-.44l.63-.66c.24-.28.42-.42.53-.42s.26.17.58.51a6.24,6.24,0,0,0,4.76,1.72,7.58,7.58,0,0,0,5.49-2.07v.29a4.22,4.22,0,0,0,.95,3,10.78,10.78,0,0,0,1.58-1.38,9.85,9.85,0,0,0,.67-.78.16.16,0,0,0,.05.08,1.35,1.35,0,0,0,.82.15h10.39c.29,0,.47-.06.55-.18a2.23,2.23,0,0,0,.12-1v-2.16c0-.34,0-.55-.13-.63a1.17,1.17,0,0,0-.68-.12h-.49a3.49,3.49,0,0,1,1-2.07,3.33,3.33,0,0,1,1.19-.76,3.61,3.61,0,0,1,1.09.66,3.53,3.53,0,0,1,1.1,2.17h-.58a1,1,0,0,0-.6.12.75.75,0,0,0-.12.51v2.62a1.1,1.1,0,0,0,.13.68,1.18,1.18,0,0,0,.73.14h5.64l.06-.06c.21-.23.41-.47.61-.71l.28-.33c.2-.23.39-.47.58-.71s.16-.19.23-.29l.61-.76.2-.25.09-.12.26-.33.35-.45,0,0,0,0,.06-.08c.16-.2.31-.41.46-.61l0,0,.12-.17c.18-.23.35-.47.52-.71l.63-.89.27-.39a.21.21,0,0,0,0-.06l.11-.16.13-.2,0-.06c.19-.27.37-.55.55-.82s.22-.32.32-.49.2-.3.29-.45a.16.16,0,0,0,0-.07l0-.06.36-.57h0c.15-.23.29-.47.43-.7L135,94l.33-.55c.11-.18.22-.36.32-.55h0l.19-.32.18-.32,0,0,.39-.68,0,0a.75.75,0,0,1,.07-.12l.15-.28a.08.08,0,0,0,0,0l0,0a1.62,1.62,0,0,1,.1-.18l0-.06.44-.81.49-.92c.11-.2.21-.4.31-.6,0,0,0,0,0,0,.12-.22.23-.45.34-.68h0s0,0,0,0,.15-.29.22-.44l.06-.12c.14-.27.27-.55.4-.83,0,0,0-.07.05-.1s0,0,0,0l.43-.91.06-.13.12-.27h0l.3-.67.05-.12a2867596472090.44,2867596472090.44,0,0,0,.22-.5l.53-1.23h-5.83a.82.82,0,0,0-.52.11.75.75,0,0,0-.11.5v3a.74.74,0,0,0,.08.42c.06.06.2.09.45.09h.38q.72,0,.72.09t-.39.48l-4.52,4.81a7.59,7.59,0,0,1-1,1c-.05,0-.07-.07-.07-.21a7.34,7.34,0,0,1,.17-1.2l.7-4a2.17,2.17,0,0,0,.05-.25c0-.11,0-.18,0-.21l0-.15a.38.38,0,0,1,.06-.14l.1-.08a.31.31,0,0,1,.13-.06l.18,0,.25,0h.63a.88.88,0,0,0,.51-.1.79.79,0,0,0,.1-.47V83a1.15,1.15,0,0,0-.07-.53.36.36,0,0,0-.31-.11h-8.7l-.25,0c-.29,0-.43.2-.43.6v2.58a1.63,1.63,0,0,0,.1.75c.06.1.21.15.43.15h.71a3.51,3.51,0,0,1-.73,1.8,3.35,3.35,0,0,1-1.74,1.13l0-.21a3.31,3.31,0,0,1-1.33-1.19,3.56,3.56,0,0,1-.53-1.52h.36c.45,0,.71,0,.78-.14a2.33,2.33,0,0,0,.11-1v-2a1.72,1.72,0,0,0-.12-.81.47.47,0,0,0-.43-.18l-.28,0h-3.3a2.82,2.82,0,0,0,.08-.61c0-.83,0-1.66,0-2.5h3a5,5,0,0,1,.5,0,3.67,3.67,0,0,1,1.42.27,3.64,3.64,0,0,1,1.37-.27l.51,0h8.44a3.75,3.75,0,0,1,1.12.17,4.62,4.62,0,0,1,1.26-.17h7.07l0-.08c.22-.58.43-1.16.64-1.74.09-.24.17-.48.25-.72a.14.14,0,0,0,0-.06c.24-.68.47-1.36.69-2L144,74a.19.19,0,0,0,0-.07.14.14,0,0,1,0-.06c.06-.21.13-.41.19-.62l.19-.61.18-.61c0-.12.07-.24.11-.37l0-.13c.06-.22.13-.44.19-.66s.05-.16.07-.23c.17-.59.33-1.18.49-1.78.06-.23.13-.47.19-.71s.14-.53.2-.8.14-.53.2-.79c0,0,0-.11,0-.16l.21-.88.06-.25c.11-.46.21-.93.32-1.39A142.85,142.85,0,0,0,148.81,18.38Z"/><path class="cls-2" d="M141.32,99a3.35,3.35,0,0,0-.63,1.29c.39-.59.76-1.19,1.13-1.8A4.84,4.84,0,0,0,141.32,99ZM144,82.52a.38.38,0,0,0-.2-.14.93.93,0,0,0-.31,0h-2.59c-.17.41-.35.82-.53,1.23,0,.08-.07.17-.11.25a2.72,2.72,0,0,0-.11.25l-.05.12-.3.67h0l-.12.27-.06.13c-.14.31-.28.61-.43.91,0,0,0,0,0,0a.47.47,0,0,1,0,.1c-.13.28-.27.55-.4.83l-.06.12c-.07.15-.14.3-.22.44s0,0,0,0h0c-.11.23-.23.45-.34.68l0,0c-.1.2-.2.4-.31.6s-.32.62-.49.92-.29.54-.44.81l0,.06a1.62,1.62,0,0,1-.1.18l3.85-3.91.37-.38a1.2,1.2,0,0,1,.34-.16,1.93,1.93,0,0,1,.64-.09h1.35a2.73,2.73,0,0,0,.56,0,.34.34,0,0,0,.19-.08,1.33,1.33,0,0,0,.12-.75V83.45A2.12,2.12,0,0,0,144,82.52Zm3.68-.18a2.32,2.32,0,0,0-.52,0,.34.34,0,0,0-.2.09,2.23,2.23,0,0,0-.1.9v2.35a.88.88,0,0,0,.12.57.41.41,0,0,0,.21.09,2.06,2.06,0,0,0,.39,0h.47c.58-1.33,1.13-2.68,1.66-4.06h-2Zm8.87-67.61-.39-2.28L154,11.61C123.58-.38,93.46,0,91.18,0s-32.4-.39-62.87,11.6l-2.15.84-.39,2.28A145.84,145.84,0,0,0,27.58,65.4a117,117,0,0,0,3.9,13.84h3.93a16.63,16.63,0,0,1,4.7.58l.33.1a.14.14,0,0,1,0-.06c-.05-.14-.11-.27-.16-.41s0-.09,0-.13l-.3-.8c0-.08-.06-.17-.1-.26l0-.08-.33-.92s0-.09-.05-.14l-.14-.39s0-.09,0-.14l0-.1c-.1-.28-.2-.55-.29-.83l-.06-.19-.06-.17a.14.14,0,0,1,0-.07c-.12-.36-.24-.72-.35-1.08s-.27-.84-.39-1.26l-.12-.4c-.11-.35-.22-.71-.32-1.07,0-.06,0-.12,0-.17l-.33-1.16s0,0,0,0v0c0-.12-.07-.25-.1-.38a.29.29,0,0,1,0-.09l0-.1-.3-1.11c-.12-.45-.23-.9-.35-1.35,0-.11-.05-.22-.08-.32l0-.13v0l-.24-1a0,0,0,0,0,0,0L36,65.22c0-.06,0-.11,0-.17-.1-.4-.19-.8-.27-1.21a142,142,0,0,1-2.1-45.51C62.23,7.63,90.79,8.14,91.08,8.15h.19c.29,0,28.85-.52,57.54,10.18a142,142,0,0,1-2.1,45.51c-.1.47-.21.93-.32,1.39l-.06.25-.21.88s0,.11,0,.16c-.06.26-.13.53-.2.79s-.13.54-.2.8-.12.47-.19.71c-.16.6-.32,1.19-.49,1.78a1.55,1.55,0,0,1-.07.23c-.06.22-.13.44-.19.66a.65.65,0,0,1,0,.13c0,.12-.07.25-.11.37l-.18.61c-.06.21-.13.41-.19.61s-.13.41-.19.62c0,0,0,0,0,.06a.19.19,0,0,0,0,.07l-.18.55c-.22.69-.45,1.37-.69,2a.14.14,0,0,0,0,.06l-.25.72c-.21.59-.42,1.17-.64,1.74l0,.08h1.35a4,4,0,0,1,2,.5,4.42,4.42,0,0,1,2.23-.5h3.16a115.59,115.59,0,0,0,3.89-13.84A145.69,145.69,0,0,0,156.58,14.73ZM50.87,100.93a.36.36,0,0,0-.31-.11h-.91c-.27,0-.41-.08-.41-.24a2.36,2.36,0,0,1,.34-.75l.36-.66a1.29,1.29,0,0,1,.42-.51h0L49.9,98c-.11-.15-.21-.31-.31-.46l-.1-.14,0,0L49.23,97,49,96.6l-.06-.08-.23-.34a.08.08,0,0,1,0,0l-.18-.28-.21-.32,0-.05-2.55,4.69a1.62,1.62,0,0,1-.4.56,1.33,1.33,0,0,1-.62.1h-2c-.16,0-.26,0-.3.11a.78.78,0,0,0-.06.31c.77,1.16,1.57,2.31,2.39,3.42.05.08.11.15.16.22h5.31c.38,0,.61-.05.68-.15a2.11,2.11,0,0,0,.11-.9v-2.38A.92.92,0,0,0,50.87,100.93Zm80.12,0c-.05-.06-.2-.09-.46-.09h-.16l0,0-.35.45-.26.33-.09.12-.2.25c-.2.26-.4.51-.61.76-.08.1-.16.19-.23.29l-.58.71-.28.33c-.2.24-.4.48-.61.71l-.06.06h3.17q.63,0,.72-.12a2.23,2.23,0,0,0,.1-.9v-2.35A1.31,1.31,0,0,0,131,100.92Zm2.47,6.28-.33-.21a4,4,0,0,1-2.89,1h-6l-.08.08-.55.57-.1.1-.23.22-.35.35-.35.34-.06.06h0l-.48.46-.32.3-.61.57-.62.56-.31.28-.31.28-.64.55-.18.16-.24.2h0l-.58.49-.06.05-.34.28-.34.28-.37.3-.57.45,0,0c-.14.12-.29.23-.44.34l-.53.4h0l-.41.31-.07,0-.5.37,0,0-.69.5-.26.19-.75.52-.06,0-.47.32-.68.46,0,0-.33.22-.09.06-.72.47-.28.18-.77.49,0,0-.39.24-.39.23-.28.17-.76.45,0,0-.05,0-.39.22-.28.16a1,1,0,0,0-.17.1l-.81.45-.37.21-.67.36-.58.31-.44.23-.72.37-1.08.54-.18.09-.92.44-.07,0-.33.15-.92.43h0l-.41.18-.44.2-.24.1,0,0-.78.34-.54.23,0,0-.62.26-.07,0-.08,0-.26.1-.47.19-.47.18-.11,0-.71.27,0,0-.24.09-.14,0-.66.25h0l-.61.23-.06,0-.11,0-1.06.38-1.06-.38-.11,0-.06,0-.61-.23h0l-.66-.25-.14,0-.24-.09,0,0-.71-.27-.11,0-.47-.18-.47-.19-.26-.1-.08,0-.07,0-.62-.26a.05.05,0,0,1,0,0l-.54-.23-.78-.34,0,0-.24-.1-.44-.2-.41-.18h0l-.92-.43-.33-.15-.07,0-.92-.44-.18-.09-1.08-.54-.72-.37-.44-.23-.58-.31-.67-.36-.37-.21-.81-.45a1,1,0,0,1-.17-.1l-.28-.16-.39-.22,0,0-.05,0c-.25-.14-.51-.29-.76-.45l-.28-.17-.39-.23-.39-.24,0,0c-.26-.16-.52-.32-.77-.49l-.28-.18-.72-.47-.09-.06-.33-.22,0,0-.68-.46-.47-.32-.06,0-.75-.52-.26-.19-.69-.5,0,0-.5-.37-.07,0-.41-.31h0l-.53-.4-.44-.34s0,0,0,0l-.57-.45-.37-.3-.34-.28-.34-.28-.06-.05-.58-.49h0l-.24-.2-.18-.16-.64-.55-.31-.28-.31-.28-.62-.56-.61-.57-.32-.3-.48-.46a0,0,0,0,1,0,0l-.06-.06-.35-.34-.35-.35-.23-.22-.06-.06,0,0-.55-.57a.6.6,0,0,1-.08-.08H55.93A4.06,4.06,0,0,1,53,107a3.88,3.88,0,0,1-2.84,1H47.27c10.72,13.22,25,22.88,42.64,28.71l1.29.43,1.29-.43c17.63-5.85,32-15.54,42.73-28.83A6.49,6.49,0,0,1,133.46,107.2Zm6.36-6.87a3.83,3.83,0,0,1-.57-1.52c-.1-.62-.22-1.27-.35-2a5.9,5.9,0,0,0-.85-2.06,4.66,4.66,0,0,0-1.84-1.64l-.53-.29h0l-.32.55L135,94l-.18.3-.43.7h0l-.36.57,0,.06a.43.43,0,0,0,0,.07c-.09.15-.19.3-.29.45l-.32.49c-.18.28-.36.55-.55.82a.21.21,0,0,1,0,.06c.07.42.14.92.21,1.49.1.93.21,1.69.31,2.29a8.8,8.8,0,0,0,.54,1.84,2.78,2.78,0,0,0,1.19,1.41,4.13,4.13,0,0,0,2.08.47h.33c1-1.37,2-2.76,2.92-4.2A1.31,1.31,0,0,1,139.82,100.33ZM41.69,84.4a4.82,4.82,0,0,0-2.46-1.61,13.87,13.87,0,0,0-3.83-.45H32.6c.53,1.37,1.08,2.73,1.66,4.06h.66a2,2,0,0,1,1.38.5,1.66,1.66,0,0,1,.54,1.28,3.39,3.39,0,0,1-.75,2.2c.49,1,1,2,1.54,3A8.26,8.26,0,0,0,41,91.56a5.4,5.4,0,0,0,1.67-4.1A4.73,4.73,0,0,0,41.69,84.4ZM37.94,94q1.16,2.14,2.4,4.2a5.54,5.54,0,0,0,.26-1.61C40.6,95.35,39.71,94.49,37.94,94Z"/><path class="cls-2" d="M22,95.82c0-.15,0-.27,0-.37V93.68a.75.75,0,0,0-.08-.44.85.85,0,0,0-.47-.08H11.64c-.21,0-.35,0-.41.14a1.59,1.59,0,0,0-.1.71v1.92a.88.88,0,0,0,.12.57,1,1,0,0,0,.63.12h.91l.31,0,.26,0q.36,0,.36.39a.34.34,0,0,1,0,.09.49.49,0,0,0,0,.12l-.1.78a4.55,4.55,0,0,1-.24,1.14,2.36,2.36,0,0,1-.53.75,4.65,4.65,0,0,1-3.44,1.35,2.62,2.62,0,0,1-2.5-1.38,9.78,9.78,0,0,1-.74-4.42,13.44,13.44,0,0,1,1.72-7c1.15-2,2.6-2.92,4.37-2.92a4.25,4.25,0,0,1,3,1.13,4.51,4.51,0,0,1,1.2,3.44c0,.1,0,.24,0,.42s0,.29,0,.33a.32.32,0,0,0,.11.28.86.86,0,0,0,.45.08h2.36a.32.32,0,0,0,.24-.15.85.85,0,0,0,.12-.26c0-.08,0-.25.07-.51l1-6.51,0-.16a7.66,7.66,0,0,0,.14-.9.29.29,0,0,0-.14-.25,1.12,1.12,0,0,0-.56-.11H18.51a1.86,1.86,0,0,0-.76.11,1.71,1.71,0,0,0-.49.47l-.43.51q-.39.45-.51.45t-.51-.45a5.49,5.49,0,0,0-4.26-1.68,10.38,10.38,0,0,0-4.73,1.1,10.72,10.72,0,0,0-3.66,3,14.3,14.3,0,0,0-2.32,4.4A16.84,16.84,0,0,0,0,95.57a10.71,10.71,0,0,0,2.31,7.23,7.64,7.64,0,0,0,6.09,2.69,11.3,11.3,0,0,0,6.17-1.64,11.78,11.78,0,0,0,3.68-3.58c.1-.16.21-.33.3-.49a4.34,4.34,0,0,0,.32-.79,6.31,6.31,0,0,0,.18-.72l.22-1.14c.05-.24.1-.39.16-.43a.61.61,0,0,1,.37-.08h1.68a.42.42,0,0,0,.48-.48A1.44,1.44,0,0,0,22,95.82Z"/><path class="cls-2" d="M181.37,94.51h-1.15a.9.9,0,0,0-.53.14,1,1,0,0,0-.25.23,1.88,1.88,0,0,0-.13.51c-.05.28-.08.45-.1.51a8.41,8.41,0,0,1-1.8,3.85,4.55,4.55,0,0,1-3.3,1.08H173c-.55,0-.82-.15-.82-.45,0,0,.07-.42.22-1.14l2-11.61a2.5,2.5,0,0,0,0-.28c0-.13,0-.21,0-.24s0-.09,0-.18a.49.49,0,0,1,0-.17.54.54,0,0,0,.07-.12c0-.06.06-.1.1-.11l.12-.06a.31.31,0,0,1,.17,0,.9.9,0,0,0,.22,0l.29,0h1.06c.51,0,.82-.06.92-.2A2.81,2.81,0,0,0,177.6,85V83a.75.75,0,0,0-.12-.51.85.85,0,0,0-.55-.12H166.79l-.23,0a.37.37,0,0,0-.31.12.93.93,0,0,0-.1.51v1.86c0,.14,0,.31,0,.5s0,.32,0,.38a.76.76,0,0,0,.16.57,1.05,1.05,0,0,0,.69.15h.82l.5,0a.89.89,0,0,1,.23,0,.31.31,0,0,1,.18.32,6.48,6.48,0,0,1-.12.84l-2,11.73c0,.1,0,.26-.07.48s-.06.35-.07.41,0,.14-.1.25-.11.19-.18.21l-.11,0-.2,0a2.21,2.21,0,0,1-.48,0h-1.64a.78.78,0,0,0-.48.09.63.63,0,0,0-.1.42V104a2.06,2.06,0,0,0,.08.76c.06.09.2.14.44.14h15.49a2.27,2.27,0,0,0,1.29-.21,3.3,3.3,0,0,0,.42-1.35l1.3-7.39c0-.12,0-.26.07-.41s.06-.27.07-.36a1,1,0,0,0,0-.23C182.33,94.66,182,94.51,181.37,94.51Z"/><path class="cls-2" d="M108,82.4a2.85,2.85,0,0,0-.72-.06h-1.16a1.88,1.88,0,0,0-.53.06.8.8,0,0,0-.28.14,3.6,3.6,0,0,0-.3.32l-.53.57c-.3.32-.52.48-.65.48a.29.29,0,0,1-.16-.06,1,1,0,0,1-.17-.14,2.84,2.84,0,0,1-.23-.24,2.64,2.64,0,0,0-.29-.29,6.15,6.15,0,0,0-4.28-1.59,6.86,6.86,0,0,0-5.26,2.32A7.89,7.89,0,0,0,92,86.12a8.64,8.64,0,0,0-.68,3.5,8.28,8.28,0,0,0,.16,1.71,6.33,6.33,0,0,0,.34,1.14,4.79,4.79,0,0,0,1.3,1.86,8,8,0,0,0,1.77,1.11,16.09,16.09,0,0,0,1.94.75c.64.2,1.23.41,1.76.63a3.45,3.45,0,0,1,1.3.92,2.11,2.11,0,0,1,.51,1.43q0,3-3.13,3a4.56,4.56,0,0,1-1.58-.27,4.7,4.7,0,0,1-1.41-.84,3.78,3.78,0,0,1-1.06-1.65,7.53,7.53,0,0,1-.39-2.56c0-.1,0-.23,0-.41a2.83,2.83,0,0,0,0-.35q0-.42-.39-.42H90.55a.6.6,0,0,0-.63.57l-1.44,7.51a4.6,4.6,0,0,1-.11.45,1.59,1.59,0,0,0-.08.42.29.29,0,0,0,.1.23.81.81,0,0,0,.53.13h1.3a2.81,2.81,0,0,0,.86-.1,1.61,1.61,0,0,0,.58-.44l.63-.66c.24-.28.42-.42.53-.42s.26.17.58.51a6.24,6.24,0,0,0,4.76,1.72,7.58,7.58,0,0,0,5.49-2.07,3.31,3.31,0,0,0,.26-.27,8,8,0,0,0,2.18-5.4c0-.13,0-.25,0-.38a8,8,0,0,0-.51-3,5.2,5.2,0,0,0-1.31-2,8.81,8.81,0,0,0-1.78-1.23,13.65,13.65,0,0,0-2-.84c-.65-.22-1.24-.43-1.78-.65A3.73,3.73,0,0,1,97.46,89,1.68,1.68,0,0,1,97,87.73a2.86,2.86,0,0,1,.68-1.85,2.3,2.3,0,0,1,1.86-.82,3.84,3.84,0,0,1,3,1.34,5.58,5.58,0,0,1,1.35,3.44,4.88,4.88,0,0,1,0,.57,3.69,3.69,0,0,0,0,.41.63.63,0,0,0,.1.21.32.32,0,0,0,.24.15h1.6a2.53,2.53,0,0,0,.53,0,.47.47,0,0,0,.31-.23.86.86,0,0,0,.14-.27c0-.06,0-.22.08-.48s.07-.45.08-.57l.28-1.64.83-4.85c0-.2,0-.32,0-.36S108.09,82.44,108,82.4Z"/><path class="cls-2" d="M144,82.52a.38.38,0,0,0-.2-.14.93.93,0,0,0-.31,0H135.1a.82.82,0,0,0-.52.11.75.75,0,0,0-.11.5v3a.74.74,0,0,0,.08.42c.06.06.2.09.45.09h.38q.72,0,.72.09t-.39.48l-4.52,4.81a7.59,7.59,0,0,1-1,1s-.07-.07-.07-.21a7.34,7.34,0,0,1,.17-1.2l.7-4a2.17,2.17,0,0,0,.05-.25c0-.11,0-.18,0-.21l0-.15a.38.38,0,0,1,.06-.14l.1-.08a.31.31,0,0,1,.13-.06l.18,0,.25,0h.63a.88.88,0,0,0,.51-.1.79.79,0,0,0,.1-.47V83a1.15,1.15,0,0,0-.07-.53.36.36,0,0,0-.31-.11H124l-.25,0c-.29,0-.43.2-.43.6v2.58a1.63,1.63,0,0,0,.1.75c.06.1.21.15.43.15h1.32c.35,0,.53.07.53.21a2.77,2.77,0,0,1-.07.51L123.5,99.45c0,.08,0,.21-.07.41s-.05.3-.06.33,0,.11-.07.23-.08.19-.12.2a.73.73,0,0,0-.18.09.62.62,0,0,1-.28.09h-1.41a1,1,0,0,0-.6.12.75.75,0,0,0-.12.51v2.62a1.1,1.1,0,0,0,.13.68,1.18,1.18,0,0,0,.73.14h8.81q.63,0,.72-.12a2.23,2.23,0,0,0,.1-.9v-2.35a1.33,1.33,0,0,0-.07-.6c0-.06-.2-.09-.46-.09h-1.2c-.38,0-.58-.09-.58-.27a2.81,2.81,0,0,1,.07-.54l.1-.54a2.68,2.68,0,0,1,.12-.47,2.32,2.32,0,0,1,.2-.38l.2-.27a3.21,3.21,0,0,1,.28-.29l.28-.25,1.49-1.5c.37-.36.6-.54.7-.54s.3.33.43,1c.05.21.1.45.14.72s.14.92.21,1.49c.1.93.21,1.69.31,2.29a8.8,8.8,0,0,0,.54,1.84,2.78,2.78,0,0,0,1.19,1.41,4.13,4.13,0,0,0,2.08.47h5c.29,0,.47-.06.54-.16a1.9,1.9,0,0,0,.11-.83v-2.16a1.05,1.05,0,0,0-.18-.74.94.94,0,0,0-.64-.17h-.84a2,2,0,0,1-.5-.06l-.23-.08a1.31,1.31,0,0,1-.54-.45,3.83,3.83,0,0,1-.57-1.52c-.1-.62-.22-1.27-.35-2a5.9,5.9,0,0,0-.85-2.06,4.66,4.66,0,0,0-1.84-1.64l-.53-.29c-.24-.14-.36-.25-.36-.31s.23-.35.7-.81l.72-.72,3.85-3.91.37-.38a1.2,1.2,0,0,1,.34-.16,1.93,1.93,0,0,1,.64-.09h1.35a2.73,2.73,0,0,0,.56,0,.34.34,0,0,0,.19-.08,1.33,1.33,0,0,0,.12-.75V83.44A2.46,2.46,0,0,0,144,82.52Z"/><path class="cls-2" d="M165.46,82.34H147.7a2.32,2.32,0,0,0-.52,0,.34.34,0,0,0-.2.09,2.23,2.23,0,0,0-.1.9v2.35a.88.88,0,0,0,.12.57.41.41,0,0,0,.21.09,2.06,2.06,0,0,0,.39,0h1.11q.84,0,.84.39a2,2,0,0,1,0,.22c0,.09,0,.2-.07.33a3,3,0,0,0-.07.34L148,95.18l-.86,4.72c0,.08,0,.19,0,.33a1.28,1.28,0,0,1-.05.27s0,.1-.08.17a.29.29,0,0,1-.17.14,1.15,1.15,0,0,1-.3,0h-2.29q-.43,0-.51.09a1.44,1.44,0,0,0-.07.63v2.66a1.51,1.51,0,0,0,.06.56c0,.07.14.11.3.11H161.6c.27,0,.44,0,.49-.09a1.25,1.25,0,0,0,.16-.54l1.12-6.52.37-2.13a.68.68,0,0,0,0-.21q0-.27-.36-.27h-1.73a1,1,0,0,0-.45.06c-.06,0-.11.17-.16.39a6.87,6.87,0,0,1-2.25,4.16,7,7,0,0,1-4.15,1.1h-1.32c-.35,0-.53-.08-.53-.24s0-.24.1-.6l.84-4.69a1,1,0,0,1,.14-.45.34.34,0,0,1,.29-.12,1.72,1.72,0,0,1,.34,0,1.74,1.74,0,0,1,1.56,2,1.82,1.82,0,0,1,0,.2,1.72,1.72,0,0,0,0,.2,2.42,2.42,0,0,0,0,.39c0,.1,0,.16.07.18a1.53,1.53,0,0,0,.41,0h1.23a.71.71,0,0,0,.46-.11.78.78,0,0,0,.17-.47l1.32-7.43c.06-.36.1-.56.1-.6s-.22-.27-.67-.27H158a.8.8,0,0,0-.34.06.44.44,0,0,0-.16.12,1.61,1.61,0,0,0-.1.27c0,.14-.07.24-.08.3a2.83,2.83,0,0,1-1.9,1.92,2,2,0,0,1-.6.12c-.21,0-.31-.12-.31-.36a6.48,6.48,0,0,1,.12-.84l.55-3.13a1.8,1.8,0,0,1,.25-.81,1.4,1.4,0,0,1,.76-.12h2.12a4.22,4.22,0,0,1,2.63.66,2.94,2.94,0,0,1,.83,2.41,9.36,9.36,0,0,1-.1,1.41,1,1,0,0,0,0,.27c0,.24.14.36.41.36h1.56a.68.68,0,0,0,.53-.15,1.5,1.5,0,0,0,.19-.63l.3-1.79,1-6.12a2.84,2.84,0,0,0,0-.3Q165.76,82.34,165.46,82.34Z"/><path class="cls-2" d="M121.41,82.49a.47.47,0,0,0-.43-.18l-.28,0H110.61c-.42,0-.66.06-.74.17a2.25,2.25,0,0,0-.12,1v2.16a1,1,0,0,0,.13.62,1,1,0,0,0,.66.14h1.39a2.31,2.31,0,0,1,.58,0,.23.23,0,0,1,.15.25s0,.23-.1.63l-2.09,11.91c0,.08,0,.22-.07.42s-.05.32-.06.36l-.06.27c0,.14-.07.22-.11.23s-.09.06-.16.14a.29.29,0,0,1-.23.12l-.31,0a2.58,2.58,0,0,1-.42,0h-1.66q-.4,0-.51.15a2.13,2.13,0,0,0-.1.84v2a2.29,2.29,0,0,0,.09.79.16.16,0,0,0,0,.08,1.35,1.35,0,0,0,.82.15h10.39c.29,0,.47-.06.55-.18a2.23,2.23,0,0,0,.12-1V101.6c0-.34,0-.55-.13-.63a1.17,1.17,0,0,0-.68-.12h-1.3c-.59,0-.89-.15-.89-.45a3.21,3.21,0,0,1,.08-.48,4.93,4.93,0,0,0,.11-.6l2.09-11.91a2.07,2.07,0,0,1,.25-.86,1.39,1.39,0,0,1,.81-.14h1.49c.45,0,.71,0,.78-.14a2.33,2.33,0,0,0,.11-1v-2A1.65,1.65,0,0,0,121.41,82.49Z"/><path class="cls-2" d="M88.75,85.88h0Q87.67,82.34,82,82.34H70.91l-.24,0a.49.49,0,0,0-.42.16,1.72,1.72,0,0,0-.11.77v2.35a1.34,1.34,0,0,0,.1.66q.09.15.39.15h1.54c.47,0,.7.09.7.27s0,.24-.1.6l-2,12c0,.1,0,.27-.08.51s-.07.39-.08.45,0,.15-.1.27-.11.2-.19.22l-.32.09a2.55,2.55,0,0,1-.52,0H67.66c-.24,0-.4.05-.47.15a1.68,1.68,0,0,0-.11.78v1.74c0,.1,0,.23,0,.41s0,.29,0,.35a.71.71,0,0,0,.13.48.69.69,0,0,0,.52.15h11c3,0,5.25-.52,6.79-1.55h0l.27-.19a6.22,6.22,0,0,0,2.32-5.32,4.89,4.89,0,0,0-.82-3.06,2.94,2.94,0,0,0-1.63-1q-1.11-.3-1.11-.57c0-.24.42-.45,1.25-.63a4,4,0,0,0,2.43-1.61.57.57,0,0,0,.08-.13A5.56,5.56,0,0,0,89,87.74,6.73,6.73,0,0,0,88.75,85.88Zm-10.33,15h-1.3c-.55,0-.82-.12-.82-.36,0-.06,0-.37.14-.93L77,96.17a2.19,2.19,0,0,0,0-.31c0-.15,0-.24,0-.27l.06-.17a.26.26,0,0,1,.1-.15l.14-.08a.71.71,0,0,1,.22-.06h2.23a2.39,2.39,0,0,1,1.58.49A2.45,2.45,0,0,1,82,97.52C82,99.72,80.83,100.83,78.42,100.83Zm3.89-10.32a3.17,3.17,0,0,1-2.2.84H78.57c-.45,0-.67-.12-.67-.36a2,2,0,0,1,0-.22c0-.09,0-.2.07-.33a3.08,3.08,0,0,0,.07-.35l.43-2.59a2,2,0,0,1,.33-1,1.94,1.94,0,0,1,1-.15h1.73q1.68,0,1.68,1.8A3,3,0,0,1,82.31,90.51Z"/><path class="cls-2" d="M66,100.93a.3.3,0,0,0-.26-.11h-1.6l-.14,0-.1,0-.16-.09a.49.49,0,0,1-.1-.16,1.89,1.89,0,0,1-.06-.21l0-.3a3.48,3.48,0,0,0-.06-.35L60.69,83.3l-.07-.45c0-.2-.06-.33-.07-.39s0-.15-.08-.26a.29.29,0,0,0-.17-.2L60,81.92a1.92,1.92,0,0,0-.45,0H56.63a1.92,1.92,0,0,0-.94.15,2.33,2.33,0,0,0-.53.72l-.23.43L48.26,95.46l-2.55,4.69a1.62,1.62,0,0,1-.4.56,1.33,1.33,0,0,1-.62.1h-2c-.16,0-.26,0-.3.11a.78.78,0,0,0-.06.31c0,.07,0,.16,0,.25v2.64c0,.34.06.55.17.63a1.21,1.21,0,0,0,.65.12h7c.38,0,.61-.05.68-.15a2.11,2.11,0,0,0,.11-.9v-2.38a1.18,1.18,0,0,0-.07-.53.36.36,0,0,0-.31-.11h-.91c-.27,0-.41-.08-.41-.24a2.36,2.36,0,0,1,.34-.75l.36-.66a1.29,1.29,0,0,1,.42-.51h0a2.43,2.43,0,0,1,.76-.08h5.53a1.11,1.11,0,0,1,.6.09,1.51,1.51,0,0,1,.19.63l.07.54c.06.44.1.67.1.69s0,.23-.13.25a2.41,2.41,0,0,1-.59,0H55.49q-.32,0-.39.12a1.57,1.57,0,0,0-.07.63v2.19a2.34,2.34,0,0,0,.11,1c.07.1.32.15.76.15h9.29a1.5,1.5,0,0,0,.72-.12c.13-.08.19-.29.19-.63v-2.7A1,1,0,0,0,66,100.93Zm-9.52-6.19a2.35,2.35,0,0,1-.76.08H53.59c-.75,0-1.13-.07-1.13-.21a5.09,5.09,0,0,1,.38-.84l2.14-4,.28-.54a4.89,4.89,0,0,1,.25-.47c.05-.07.1-.11.14-.11s.21.41.34,1.23l.58,3.61c0,.12,0,.28.07.48s0,.33,0,.39A.31.31,0,0,1,56.51,94.74Z"/><path class="cls-2" d="M41.06,100.83h-.39q-.72,0-.72-1a4.62,4.62,0,0,1,.23-1.1c0-.1.06-.2.1-.31a1.8,1.8,0,0,0,.06-.22,5.54,5.54,0,0,0,.26-1.61c0-1.21-.89-2.07-2.66-2.58a11,11,0,0,0-1.38-.3c.37-.08.73-.16,1.07-.27A8.26,8.26,0,0,0,41,91.57a5.4,5.4,0,0,0,1.67-4.1,4.72,4.72,0,0,0-.93-3,4.82,4.82,0,0,0-2.46-1.61,13.87,13.87,0,0,0-3.83-.45H24.74l-.34,0a.55.55,0,0,0-.37.1l0,0a1,1,0,0,0-.12.59v2c0,.1,0,.22,0,.37s0,.25,0,.31a.71.71,0,0,0,.13.5.84.84,0,0,0,.57.14h1q.75,0,.75.36c0,.06,0,.14,0,.23s0,.2-.07.33a3.08,3.08,0,0,0-.07.35L25.08,94l-.75,4.4-.19,1.09c0,.1,0,.27-.07.5a4.15,4.15,0,0,1-.07.41,1.76,1.76,0,0,1-.13.21.41.41,0,0,1-.28.18,2.69,2.69,0,0,1-.46,0H21.76l-.24,0a.3.3,0,0,0-.19.09,1,1,0,0,0-.07.42v2.43a2.12,2.12,0,0,0,.12.93c.08.12.25.18.53.18h9.36a1,1,0,0,0,.69-.17.83.83,0,0,0,.16-.59c0-.06,0-.18,0-.35s0-.31,0-.43v-1.74A1.34,1.34,0,0,0,32,101a.39.39,0,0,0-.36-.15,1.4,1.4,0,0,0-.25,0h-1q-.6,0-.6-.24s0-.24.1-.6L30.4,97q0-.15.06-.42a2.12,2.12,0,0,1,.06-.36,1.33,1.33,0,0,1,.1-.23.31.31,0,0,1,.23-.17,2.1,2.1,0,0,1,.4,0h1a3.16,3.16,0,0,1,1.85.43,1.76,1.76,0,0,1,.6,1.52,13,13,0,0,1-.3,2.3,12.92,12.92,0,0,0-.3,2.27,2.3,2.3,0,0,0,.89,2,5.15,5.15,0,0,0,2.91.63h2.79c.43,0,.7,0,.79-.15s.14-.36.14-.78v-2.65a.7.7,0,0,0-.08-.41A.92.92,0,0,0,41.06,100.83ZM36,90.53a2.9,2.9,0,0,1-2.24,1H32.06q-.75,0-.75-.33c0-.06.05-.33.14-.81l.12-.73L32,87.42a2.15,2.15,0,0,0,.06-.35,1.38,1.38,0,0,1,.05-.28l.07-.17c0-.09.08-.14.13-.15l.2,0a1.69,1.69,0,0,1,.35,0H34.9a2,2,0,0,1,1.38.5,1.66,1.66,0,0,1,.54,1.28,3.39,3.39,0,0,1-.75,2.2A.72.72,0,0,1,36,90.53Z"/><path class="cls-2" d="M127.63,34.53Zm0,0Zm0,0Zm0,0Zm0,0Zm0,0Zm0,0Zm0,0Zm0,0Zm0,0Zm0,0Zm0,0Zm0,0Zm0,0Zm6.86-1.36c-1.84,0-3.68,0-5.53,0a2,2,0,0,0-1,.2c-1.6,1-3.17,2.12-4.74,3.19-.46.31-.9.65-1.12.82-.84-.64-1.47-1.46-2.33-1.7a16.09,16.09,0,0,0-8.21,0c-.6.15-1,.8-1.49,1.27-.19.19-.21.5-.37.93L107,35.34a7,7,0,0,0-5.7-2.16c-.8.08-1.63,0-2.45,0L98,29.28l.41.18c.55-.44,1.43-.82,1.56-1.33.22-.89.48-2-.93-2.56-2.41-.95-4.12-2.6-6-4.09a4.17,4.17,0,0,0-2.27-.79q-13-.07-26.06,0a4,4,0,0,0-2.17.75c-1.8,1.32-3.25,3-5.44,3.93a2.09,2.09,0,0,0-1.19,2.85c.27.94,1.24,1,2.17,1a3.1,3.1,0,0,1,0,.69c-.92,3.9-1.9,7.79-2.76,11.7A12.19,12.19,0,0,0,54.82,46c.51,3.31,1.38,6.58,2.09,9.87.29,1.32.57,2.64.87,4.06H56.6c-2,0-3,.73-3.16,2.41-.32,2.86-.62,5.72-1,8.58A2.35,2.35,0,0,0,53.23,73a2.16,2.16,0,0,1,.61,1.31c0,1.74,0,3.49,0,5.23,0,.66,0,1.32,0,2a1.9,1.9,0,0,0,1,1.71,2.84,2.84,0,0,0,1.5.3,2.09,2.09,0,0,0,2.12-1.6,3,3,0,0,0,0-.43c0-.9,0-1.79,0-2.68v-2.5c.61,0,1.09.12,1.56.12,5.19,0,10.38,0,15.57.06,3.5,0,7,.09,10.48.11,3.87,0,7.74,0,11.62,0,.52,0,1.36,0,1.06-.6-.66-1.31-.71-3-2.49-3.73.49-.55,11.15-1.06,13-.61,0,.68,0,1.37,0,2.06.07,1,.87,1.39,2,1.11a14.19,14.19,0,0,1,2.28-.19v4.6c0,.82,0,1.64,0,2.46a2.69,2.69,0,0,0,.08.65,1.68,1.68,0,0,0,1.8,1.3,1.72,1.72,0,0,0,1.85-1.3,2.82,2.82,0,0,0,.08-.61c0-.83,0-1.66,0-2.5V74.6a17.14,17.14,0,0,1,2,.29,1.32,1.32,0,0,0,1.75-.77,3.71,3.71,0,0,0,.19-1c1.4,0,2.75,0,4.1,0,.76,0,1.26-.14,1.24-.88s-.49-.83-1.2-.82c-1.12,0-2.25,0-3.42,0,.34-1.93.71-3.73,1-5.55.1-.71.35-1,1.24-1,1.84,0,2.16-.24,2.16-1.79,0-3.19,0-6.38,0-9.58a3.8,3.8,0,0,0-.59-1.31c.59-.09.76-.6.72-1.27-.07-1.07,0-2.15-.13-3.21-.35-2.32-.92-4.57-3.45-6a.72.72,0,0,1-.25-.61c.08-.64.23-1.28.37-1.91.06-.26.09-.6.3-.75,1.4-1.05,2.84-2.06,4-2.91a17.45,17.45,0,0,0,2,.11c.8-.06,1.58-.26,2.38-.31s1.8,0,2.71,0,1.44-.29,1.45-1.1S135.45,33.16,134.49,33.17Zm-14,5.67c1.25,0,2.21.6,2.21,1.37s-1,1.42-2.29,1.4-2.24-.66-2.25-1.37S119.27,38.83,120.51,38.84Zm-4.68,11.44c-2.9,0-5.18-2-5.17-4.42s2.35-4.4,5.32-4.38,5.19,2.06,5.15,4.46S118.68,50.31,115.83,50.28Zm2.74,3.3A2.59,2.59,0,0,1,116,55.87a2.62,2.62,0,0,1-2.74-2.17,2.51,2.51,0,0,1,2.66-2.32A2.57,2.57,0,0,1,118.57,53.58Zm-3-13.39h2.14c0,.18.07.39.14.77h-3.5C114.38,40.18,114.38,40.18,115.54,40.19Zm-4.07-1.35c1.29,0,2.43.64,2.41,1.41s-1.07,1.35-2.25,1.36-2.33-.63-2.35-1.37S110.26,38.87,111.47,38.84Zm-1.83,6.57c0,.7-.45,1.15-1.27,1.17a1.2,1.2,0,0,1-1.39-1.1c0-.67.45-1.1,1.29-1.17S109.62,44.69,109.64,45.41Zm-5.26-11.65,5.25,4.47C108.4,38.47,104,35,104.05,34Zm-1.69-.23c.86,0,.86.45.83.94s0,1-.81,1-.77-.53-.78-1S101.89,33.54,102.69,33.53Zm-.52,2.17c.38.23,1.25-.1,2.17-.21,1.23.92,2.76,2,4.25,3.19a1.14,1.14,0,0,1,.29.74c.08.59.11,1.18.17,1.91-2.83,1.1-3.31,3.45-3.88,5.69a15,15,0,0,0-.27,3.48c0,.82.08,1.66,1.41,1.88-1.4.52-2.25.17-2.85-.88A8.81,8.81,0,0,0,102,49.71a3.06,3.06,0,0,1-1-3.21c.61-2.19-.43-4.3-.76-6.45-.23-1.5-.59-3-.92-4.57C100.31,35.53,101.19,35.09,102.17,35.7Zm-4,30.94c-.16,0-.29-.44-.23-.61a1,1,0,0,1,.6-.57c1.86-.37,3.74-.7,5.61-1,.18,0,.45-.07.54,0,.86.72,1.94.51,3,.59a1,1,0,0,1,.69.53c.29,1.2.49,2.42.76,3.86H97.87L98.59,68C98.84,67.45,99.11,66.94,98.2,66.64Zm-35.07-24c-.33,2.82,1.37,4.43,4.76,4.43H88.53c2.55,0,4.21-1.59,4-3.74-.39-4.72-.73-9.44-1.1-14.27a20.08,20.08,0,0,1,2.2,0c.21,0,.49.37.53.6.27,1.56.41,3.13.72,4.68s.84,3.38,1.21,5.07a30.55,30.55,0,0,1,1,4.94,24.31,24.31,0,0,1-.47,4.79c-.77,5.23-1.6,10.45-2.38,15.67-.25,1.7-.2,1.7-2.25,1.7l-24.81,0c-1.16,0-2.33-.08-3.49-.08-.65,0-.89-.22-1-.76-1.39-6.55-2.9-13.08-4.15-19.65-.28-1.49.26-3.12.59-4.66.8-3.75,1.73-7.49,2.54-11.24.17-.8.51-1.18,1.5-1.1a12.78,12.78,0,0,0,1.47,0C64.12,33.58,63.64,38.1,63.13,42.62ZM65,30.36c.17-1.58.16-1.59,2-1.71a173.91,173.91,0,0,1,22.6,0c1,.07,1.33.41,1.39,1.21.24,3.31.53,6.61.8,9.91.1,1.26.2,2.52.28,3.78a3.17,3.17,0,0,1-3.44,3H67.43c-2.4,0-4-1.55-3.82-3.55Q64.3,36.73,65,30.36ZM95.88,64.25c2.71-.45,5.39-1,8.18-1.5V64l-9.22,1.68C94.74,64.87,94.87,64.41,95.88,64.25Zm8.3-2.68c0,.27-.26.72-.5.77-1.69.37-3.41.65-5.31,1,.63-4,1.23-7.89,1.84-11.74l.25-.07c1.23,1.52,2.48,3,3.66,4.57.18.23.07.62.07.93C104.21,58.54,104.23,60.06,104.18,61.57ZM98.64,46.39l4.53,5.52c1.07,1.3,1.07,1.3.88,3.21-2.15-2.63-4.21-5.07-6.14-7.57-.35-.46-.2-1.18-.28-1.79l.31-.12C98.18,45.89,98.43,46.13,98.64,46.39ZM65.9,21.07c8.08,0,16.16,0,24.23,0a4.06,4.06,0,0,1,3.07,1.08,23.6,23.6,0,0,0,2.07,1.59l-.2.25H60.61A6.14,6.14,0,0,1,65.9,21.07Zm-7.76,7.74c-.7,0-1.56.09-1.69-.59s-.54-1.66.46-2.27a8.77,8.77,0,0,1,4.94-1.54c5.34.1,10.68,0,16,0,5.56,0,11.13,0,16.7,0a7.76,7.76,0,0,1,4.79,1.86c.43.32.39,1.32.2,1.93-.1.3-1,.61-1.57.58q-6.36-.26-12.71-.66a154.45,154.45,0,0,0-18.13.17ZM55.41,73.49c-1.82-.28-2.54-1.29-2.38-2.83.29-2.79.61-5.59,1-8.37.21-1.57,1.57-2.33,3.36-1.94a.83.83,0,0,1,.51.49c.4,1.63.76,3.28,1.12,4.92,0,.18.1.45,0,.55-.87.77-.32,1.52,0,2.28.49,1.19,1,2.38,1.47,3.62-.35.19-.72.28-.82.47C58.64,74.55,56.82,73.71,55.41,73.49Zm42,.32c.29.74.68,1.45,1.07,2.25H59.09A19.08,19.08,0,0,1,60,73.28c.12-.26.85-.44,1.3-.44,5.87,0,11.73,0,17.6,0,5.6,0,11.21,0,16.81,0C96.61,72.8,97.12,73.06,97.41,73.81Zm-1.62-1.69c-.09.16-.58.24-.88.24q-16.41,0-32.83,0c-.34,0-.89-.17-1-.37-.72-1.58-1.36-3.19-2.06-4.87H98.46C97.51,68.93,96.68,70.54,95.79,72.12Zm13.43-1h-12c.1-.63.32-1.13,1.34-1.14,3.15,0,6.29-.08,9.44-.2C109.07,69.75,109.37,70.12,109.22,71.13Zm.09-6.49c-1.08,0-2.13.07-3.16,0a1.46,1.46,0,0,1-1.5-1.41c0-3.19,0-6.38,0-9.57a.75.75,0,0,1,.24-.57c.46-.36,3-.24,3.54.39h-1.5c-1,0-1.42.28-1.4,1.17,0,2.43,0,4.86,0,7.29,0,1.27.61,1.76,2.12,1.76h1.63v1Zm2.29,9.2a4.56,4.56,0,0,1-.85.78c-.3-.25-.61-.49-.9-.74-.06,0,0-.18,0-.28,0-3.38,0-6.75,0-10.13a.46.46,0,0,1,.09-.19h1.7v9.81C111.64,73.34,111.73,73.64,111.6,73.84ZM109,53.94V52h3.39c.06.07.13.12.13.17C112.75,54.28,111.8,54.77,109,53.94Zm4.65,20.32h-1.49v-1.4h1.49Zm3.68-3a10.1,10.1,0,0,1-1.55.19c-2.42,0-2.76-.24-2.76-2.26,0-2.21,0-4.42,0-6.63,0-.69.25-1.08,1.07-1.18a14.06,14.06,0,0,1,1.44-.15c2.47,0,2.71.17,2.71,2.2v2.94c0,.59,0,1.18,0,1.77v.45c0,.27,0,.55,0,.82s0,.57,0,.85C118.22,70.83,117.93,71.14,117.3,71.25Zm1.27,3-1,0V72.82h1Zm2.3-.48a8.16,8.16,0,0,1-.91.84,11.86,11.86,0,0,1-.86-.88c-.09-.11,0-.31,0-.47V63.9c0-.25,0-.5.06-.79l1.68.21c0,.27.07.54.07.81v9.08C120.9,73.42,121,73.66,120.87,73.78ZM118.67,52h3.75v1.91C119.82,54.74,119,54.34,118.67,52Zm7.39,1.52c0,3.31,0,6.62,0,9.93,0,.84-.42,1.27-1.52,1.19s-2,0-3.12,0c0-.3-.08-.56-.13-1,.86,0,1.64,0,2.41,0,1.14.08,1.63-.46,1.65-1.27q.07-4.11,0-8.23c0-.25-.54-.6-.91-.71a5.65,5.65,0,0,0-1.43,0l0-.42c.89-.05,1.77-.13,2.66-.12C125.79,52.93,126.06,53.33,126.06,53.54Zm-2.84-9.21a1.15,1.15,0,1,1,.12,2.25,1.2,1.2,0,0,1-1.4-1.09C121.9,44.8,122.38,44.37,123.22,44.33Zm5.65-8.92-.1,0-.08,0,0,0,0,0-.11-.07-.12-.09-.11-.09-.14-.12-.12-.1-.18-.15-.2-.16-.07.18a.3.3,0,0,1,0,.1,1.24,1.24,0,0,1-.1.2.21.21,0,0,1,0,.06.77.77,0,0,1-.17.19c-1.23,1-2.53,1.87-3.79,2.82a.81.81,0,0,1-1.33-.18l5.25-3.76.37.2a1.42,1.42,0,0,0-.08.18,6.7,6.7,0,0,0,.59-.53l.07-.06a1.29,1.29,0,0,1,.52-.34l.07,0c.84-.15.8.43.81.92S129.71,35.55,128.87,35.41Zm-1.24-.88Zm0,0Zm0,0Zm0,0Zm0,0Zm0,0Zm0,0Zm0,0Zm0,0Zm0,0Zm0,0Zm0,0Zm0,0Zm0,0Zm0,0Z"/><path class="cls-2" d="M78,46.64H67.43c-2.4,0-4-1.55-3.82-3.55Q64.3,36.73,65,30.37c.17-1.59.16-1.59,2-1.71a175.7,175.7,0,0,1,22.6,0c1,.07,1.33.41,1.39,1.21.24,3.31.53,6.61.8,9.91.1,1.26.2,2.52.28,3.78a3.17,3.17,0,0,1-3.44,3Z"/><path class="cls-2" d="M98.48,76.06H59.09A19.08,19.08,0,0,1,60,73.28c.12-.26.85-.44,1.3-.44,5.87,0,11.73,0,17.6,0,5.6,0,11.21,0,16.81,0,1,0,1.46.26,1.75,1S98.09,75.26,98.48,76.06Z"/><path class="cls-2" d="M95.07,24H60.61a6.13,6.13,0,0,1,5.29-2.91c8.08,0,16.16,0,24.23,0a4.06,4.06,0,0,1,3.07,1.08,22.19,22.19,0,0,0,2.07,1.59A2.56,2.56,0,0,1,95.07,24Z"/><path class="cls-2" d="M92,50.64a7.8,7.8,0,0,0-2.8-.8c-3.6-.09-7.21,0-10.82,0s-7.29-.08-10.93,0a8.82,8.82,0,0,0-3.3,1,1.67,1.67,0,0,0-.75,1.43c.43,3.57,1,7.14,1.49,10.71.22,1.48,1.1,2.09,2.85,2.09H88.91c1.78,0,2.76-.78,2.92-2.28.35-3.45.71-6.91,1.1-10.36A1.62,1.62,0,0,0,92,50.64Zm.18,2.17c-.31,3.33-.65,6.66-1,10-.16,1.37-.84,1.8-2.45,1.8H68c-1.74,0-2.42-.56-2.6-2-.38-3-.69-6-1.25-8.92-.45-2.4.2-3.14,3.45-3.33,3.55-.2,7.13,0,10.7,0s6.91,0,10.37,0a6.29,6.29,0,0,1,1.44.15C91.86,50.86,92.3,51.33,92.16,52.81Z"/><path class="cls-2" d="M78.33,50.29c3.46,0,6.91,0,10.37,0a6.29,6.29,0,0,1,1.44.15c1.72.42,2.16.88,2,2.36-.31,3.33-.65,6.66-1,10-.16,1.37-.84,1.8-2.45,1.8H68.05c-1.74,0-2.42-.56-2.6-2-.38-3-.69-6-1.25-8.92-.45-2.4.2-3.14,3.45-3.33C71.18,50.13,74.76,50.29,78.33,50.29Z"/><path class="cls-3" d="M42,22.84s53.65-17.25,98.32,1.72a107.85,107.85,0,0,0-14.53-6.4A108.95,108.95,0,0,0,42,22.84Z"/><path class="cls-3" d="M118.81,104.81c-.31.41-.63.81-1,1.21h0c-.55.68-1.13,1.33-1.71,2-9.67,10.53-23.15,15.52-24.88,16.13v.06l-.09,0-.09,0v-.06c-1.73-.61-15.27-5.62-24.94-16.2l-.35-.38c-.56-.62-1.1-1.26-1.63-1.92h0l-.57-.72-.06-.08.11.08.4.3h0c.61.46,1.74,1.3,3.24,2.37l.61.43c5.76,4.09,16,10.94,23.29,13.31,7.26-2.37,17.53-9.22,23.29-13.31,1.37-1,2.48-1.79,3.24-2.35S118.77,104.83,118.81,104.81Z"/></g></g></svg>